<?xml version="1.0" standalone="no"?>
<!DOCTYPE svg PUBLIC "-//W3C//DTD SVG 20010904//EN"
 "http://www.w3.org/TR/2001/REC-SVG-20010904/DTD/svg10.dtd">
<svg version="1.0" xmlns="http://www.w3.org/2000/svg"
 width="540.000000pt" height="540.000000pt" viewBox="0 0 540.000000 540.000000"
 preserveAspectRatio="xMidYMid meet">
<metadata>
Created by potrace 1.14, written by Peter Selinger 2001-2017
</metadata>
<g transform="translate(0.000000,540.000000) scale(0.100000,-0.100000)"
fill="#000000" stroke="none">
<path d="M2457 5386 c-4 -9 -11 -15 -15 -12 -5 3 -21 -1 -36 -9 -26 -14 -27
-13 -21 7 5 14 3 18 -4 14 -6 -4 -11 -16 -11 -26 0 -10 -4 -21 -9 -24 -5 -4
-7 2 -4 12 2 10 -3 24 -11 31 -9 8 -16 9 -16 3 0 -6 6 -12 13 -15 6 -2 9 -8 5
-12 -4 -4 -15 -2 -25 6 -14 12 -16 12 -11 -1 3 -9 0 -24 -8 -35 -8 -10 -14
-14 -14 -9 0 6 5 15 12 22 9 9 8 12 -6 12 -11 0 -25 8 -33 18 -13 15 -13 15
-4 -5 15 -30 14 -32 -10 -26 -16 5 -18 8 -7 15 9 7 7 8 -7 2 -11 -4 -32 -7
-47 -8 -25 0 -30 -11 -6 -11 6 0 13 -7 15 -15 4 -13 3 -13 -6 0 -10 13 -11 13
-11 0 0 -12 -2 -12 -9 -1 -7 11 -12 11 -32 0 -13 -7 -30 -12 -37 -10 -8 1 -19
-2 -25 -7 -7 -5 -20 -8 -29 -7 -10 2 -18 -3 -18 -11 0 -8 -4 -14 -8 -14 -5 0
-9 7 -9 15 0 15 7 18 39 18 11 0 14 5 10 15 -4 11 -7 12 -10 4 -3 -10 -7 -10
-20 0 -13 11 -14 11 -7 -1 6 -11 4 -13 -9 -8 -9 4 -14 3 -11 -2 3 -5 1 -12 -5
-16 -6 -4 -8 -10 -5 -15 3 -4 -3 -7 -12 -5 -11 1 -17 10 -16 21 1 11 0 14 -3
7 -3 -7 -13 -9 -22 -5 -15 5 -15 4 1 -12 21 -21 21 -23 2 -23 -8 0 -12 4 -9 9
3 4 1 8 -5 8 -5 0 -12 -4 -16 -9 -6 -10 -45 -11 -45 -1 0 3 4 11 10 18 5 7 3
6 -6 -2 -16 -14 -11 -41 6 -31 5 3 11 1 14 -4 4 -5 -7 -7 -25 -4 -21 3 -29 1
-24 -6 3 -6 1 -11 -4 -11 -10 0 -15 14 -12 33 1 5 -3 6 -8 2 -6 -3 -8 -12 -4
-20 3 -8 1 -15 -5 -15 -6 0 -13 6 -15 13 -4 7 -6 6 -6 -5 -1 -9 5 -19 12 -21
7 -3 5 -6 -5 -6 -10 -1 -18 4 -18 9 0 7 -6 7 -19 0 -11 -5 -21 -6 -23 -1 -2 5
-10 2 -18 -7 -13 -14 -13 -15 1 -10 9 4 16 1 16 -7 0 -14 -27 -8 -40 9 -5 7
-7 2 -4 -10 2 -12 0 -28 -5 -35 -8 -11 -9 -10 -4 4 3 9 1 17 -4 17 -5 0 -7 8
-4 18 4 12 3 13 -3 4 -6 -7 -9 -26 -8 -42 1 -16 -2 -27 -7 -24 -5 4 -7 12 -4
20 3 8 1 14 -4 14 -6 0 -10 -6 -10 -12 0 -9 -3 -10 -8 -2 -4 6 -16 11 -26 11
-17 0 -17 -2 5 -20 14 -11 18 -18 9 -17 -29 4 -41 0 -34 -12 4 -7 4 -10 -1 -6
-4 4 -15 2 -23 -5 -10 -8 -13 -8 -9 -1 4 7 0 14 -8 17 -10 4 -12 1 -8 -11 5
-13 3 -14 -7 -5 -9 8 -19 9 -36 1 -27 -13 -31 -25 -9 -25 8 0 12 4 10 8 -3 4
2 10 10 13 13 4 14 2 5 -15 -6 -11 -15 -17 -20 -14 -5 3 -13 -2 -18 -11 -8
-15 -10 -15 -15 0 -5 11 -3 15 5 10 7 -4 8 -3 4 5 -5 8 -12 9 -19 2 -7 -5 -15
-10 -19 -10 -11 -1 -11 -11 -2 -19 4 -4 4 -1 0 5 -5 9 -2 11 9 6 13 -4 14 -8
4 -14 -7 -4 -23 -3 -37 2 -14 5 -27 7 -30 4 -3 -3 -1 -5 5 -5 6 0 14 -7 17
-16 6 -15 4 -15 -18 0 -18 11 -27 13 -32 4 -4 -6 -3 -8 3 -5 6 4 16 0 23 -8
11 -13 10 -14 -6 -8 -16 6 -17 5 -6 -9 10 -13 10 -18 1 -24 -7 -4 -9 -3 -6 3
4 6 1 16 -6 22 -10 8 -19 6 -34 -9 -12 -10 -24 -17 -27 -14 -3 2 -2 -2 4 -8 5
-7 10 -17 10 -22 0 -6 -4 -5 -9 2 -4 7 -20 15 -35 16 -21 3 -24 1 -14 -11 9
-11 13 -11 19 -1 5 7 9 8 9 2 0 -10 -45 -54 -55 -54 -14 0 -2 18 18 28 22 11
21 11 -5 9 -15 -1 -26 -4 -26 -7 2 -18 -3 -30 -13 -30 -5 0 -7 6 -3 13 5 9 3
9 -7 -1 -10 -9 -11 -15 -3 -20 9 -5 8 -10 -2 -19 -8 -8 -15 -9 -19 -3 -3 6 -1
10 5 10 6 0 8 5 4 11 -10 17 -25 -12 -18 -36 6 -19 6 -20 -8 -1 -15 19 -39 15
-37 -7 0 -9 2 -9 6 1 2 6 9 12 14 12 5 0 4 -9 -3 -20 -9 -13 -19 -18 -32 -14
-13 4 -16 3 -11 -6 5 -8 4 -11 -3 -6 -6 4 -9 13 -6 20 3 8 0 17 -7 22 -7 4
-10 3 -5 -4 3 -6 -2 -28 -13 -48 -11 -21 -17 -42 -14 -47 3 -6 1 -7 -5 -3 -7
4 -12 2 -12 -5 0 -7 -3 -10 -6 -7 -3 4 0 16 6 28 10 18 10 21 -2 14 -7 -5 -16
-9 -20 -9 -3 0 -10 -4 -15 -9 -5 -5 -3 -6 4 -2 8 4 13 1 13 -9 0 -9 -4 -14 -9
-11 -4 3 -17 -1 -27 -10 -18 -14 -18 -15 4 -4 15 7 22 7 22 0 0 -5 -5 -10 -11
-10 -5 0 -7 -4 -4 -10 4 -6 -1 -7 -11 -3 -13 5 -15 3 -10 -8 4 -8 -2 -3 -14
11 -20 23 -20 23 -10 3 6 -13 8 -23 4 -23 -3 0 0 -8 7 -17 8 -10 9 -14 2 -10
-6 4 -14 3 -18 -3 -4 -6 -10 -8 -15 -5 -12 7 -41 -36 -33 -48 3 -6 1 -7 -4 -4
-6 4 -18 -4 -27 -18 -9 -14 -24 -25 -34 -24 -15 0 -15 1 1 8 18 7 18 8 1 21
-10 8 -15 10 -11 3 4 -6 3 -14 -3 -18 -7 -4 -7 -12 0 -25 8 -15 6 -17 -10 -13
-11 3 -17 9 -14 14 3 5 -2 6 -12 2 -15 -5 -15 -7 0 -15 13 -7 14 -12 3 -28 -6
-11 -15 -20 -20 -20 -4 0 -5 4 -2 10 3 6 -1 7 -10 4 -14 -6 -14 -8 2 -19 17
-13 17 -14 1 -20 -10 -4 -16 -11 -13 -15 2 -4 -6 -7 -18 -7 -48 -1 -53 -3 -34
-14 9 -5 22 -7 29 -3 7 4 8 3 4 -4 -8 -13 -32 -12 -56 2 -12 7 -13 6 -2 -5 16
-17 16 -32 0 -23 -9 6 -9 3 0 -9 14 -16 8 -42 -8 -32 -5 3 -11 -4 -15 -15 -3
-11 -11 -20 -16 -20 -5 0 -2 11 7 25 9 14 20 22 25 19 5 -3 9 0 9 5 0 20 -18
11 -40 -18 -11 -16 -20 -33 -19 -38 4 -25 -3 -35 -21 -30 -11 3 -18 2 -16 -2
3 -4 -8 -20 -23 -37 -23 -24 -25 -31 -14 -39 11 -9 10 -14 -8 -34 -18 -19 -19
-25 -8 -33 11 -8 10 -8 -4 -4 -10 3 -21 6 -23 6 -3 0 -2 5 2 12 4 7 3 8 -5 4
-6 -4 -9 -11 -6 -16 2 -4 -4 -19 -15 -33 -19 -24 -20 -26 -3 -36 15 -8 15 -10
2 -11 -8 0 -21 6 -28 13 -9 8 -12 8 -7 0 3 -6 0 -13 -6 -16 -10 -3 -10 -8 1
-18 8 -8 11 -9 7 -2 -3 6 -2 14 3 17 7 5 8 -22 1 -31 -2 -2 -3 -7 -4 -13 0 -5
-4 -10 -8 -10 -5 0 -11 0 -14 0 -4 0 -1 6 5 13 8 10 7 14 -4 14 -7 0 -14 -3
-13 -6 2 -23 -4 -32 -18 -27 -9 3 -12 2 -9 -4 4 -6 13 -9 20 -8 8 2 13 -1 12
-7 -1 -5 -15 -9 -32 -8 -21 1 -25 -1 -15 -7 8 -6 11 -10 7 -10 -4 0 -2 -10 4
-22 11 -21 11 -22 -4 -10 -9 8 -22 12 -29 9 -7 -3 -4 -6 7 -6 19 -1 18 -3 -5
-22 -15 -12 -18 -19 -8 -16 9 3 19 0 22 -8 3 -9 0 -12 -8 -9 -8 3 -12 -3 -11
-18 3 -29 -12 -48 -37 -48 -10 0 -17 -4 -13 -9 3 -6 -3 -14 -12 -20 -11 -6
-13 -11 -5 -11 7 0 10 -5 7 -10 -5 -8 -12 -7 -22 2 -15 12 -15 11 -2 -9 8 -14
16 -18 20 -11 4 6 6 0 6 -15 -2 -18 -5 -23 -14 -16 -7 7 -14 6 -18 -1 -3 -5
-1 -10 4 -10 6 0 11 -4 11 -10 0 -5 -6 -7 -14 -4 -18 7 -30 -12 -15 -22 8 -5
9 -3 4 6 -6 9 -4 11 4 6 9 -6 9 -12 -3 -24 -19 -22 -21 -33 -4 -44 10 -8 10
-9 -2 -5 -8 2 -15 9 -15 14 0 6 -3 14 -6 18 -4 3 -6 -2 -6 -12 0 -36 -3 -44
-15 -37 -7 4 -8 3 -4 -5 4 -6 13 -8 19 -4 18 11 38 12 31 2 -3 -5 -9 -7 -14
-4 -4 3 -10 -2 -13 -9 -3 -8 -1 -17 6 -19 7 -2 9 -7 6 -11 -3 -3 -15 3 -27 14
-12 12 -22 16 -22 11 0 -6 10 -19 22 -31 12 -11 18 -23 15 -27 -4 -3 -7 -1 -7
5 0 6 -9 10 -21 9 l-21 -1 21 -17 c19 -16 19 -17 2 -33 -13 -12 -20 -13 -29
-4 -8 8 -12 9 -12 1 0 -6 6 -14 13 -17 9 -5 9 -7 0 -12 -7 -3 -13 -11 -13 -17
0 -6 12 0 27 14 15 13 22 17 15 8 -6 -9 -8 -20 -4 -24 4 -5 2 -5 -4 -2 -7 4
-15 0 -18 -9 -3 -8 -10 -13 -14 -10 -11 6 -9 -25 2 -43 7 -10 4 -11 -12 -2
-15 8 -23 8 -28 -1 -4 -6 -3 -8 3 -5 6 4 19 -3 29 -15 11 -12 13 -18 5 -13
-11 6 -13 4 -8 -8 3 -9 2 -19 -4 -22 -5 -4 -6 -11 -3 -17 4 -6 -1 -17 -11 -25
-11 -7 -14 -13 -8 -13 6 0 14 -7 17 -16 6 -15 3 -15 -21 1 -16 10 -22 12 -15
4 18 -20 15 -33 -6 -18 -16 13 -16 13 0 -6 12 -15 14 -25 7 -38 -6 -9 -15 -14
-21 -11 -7 4 -8 2 -4 -4 5 -9 13 -9 26 -2 25 13 40 12 18 -1 -10 -5 -18 -15
-18 -20 0 -6 4 -8 9 -4 5 3 12 1 15 -4 7 -11 -13 -9 -31 2 -9 6 -11 3 -6 -9 5
-13 3 -15 -8 -9 -12 7 -12 6 -1 -7 10 -13 10 -17 0 -20 -8 -3 -7 -6 4 -11 13
-4 16 -1 13 14 -2 10 0 19 6 19 9 0 7 -23 -6 -52 -4 -10 -5 -25 -1 -33 3 -8
-2 -21 -10 -30 -9 -8 -12 -15 -7 -15 5 0 15 6 22 13 10 10 11 9 6 -5 -6 -16
-24 -23 -48 -19 -5 1 -6 -3 -3 -7 3 -5 17 -8 31 -6 20 2 24 -1 16 -10 -7 -9
-7 -16 2 -26 6 -7 0 -5 -16 5 -24 16 -27 16 -21 1 3 -9 10 -16 15 -16 6 0 5
-9 -1 -20 -6 -11 -16 -17 -22 -14 -7 4 -8 3 -4 -4 4 -6 13 -9 20 -6 8 3 17 0
22 -7 4 -7 3 -10 -3 -6 -6 4 -19 0 -29 -8 -18 -14 -18 -14 4 -10 12 2 20 0 17
-5 -10 -17 -12 -80 -2 -80 5 0 4 -7 -3 -15 -9 -11 -9 -15 -1 -15 7 0 9 -5 6
-10 -11 -18 -16 -60 -7 -60 12 0 9 -43 -3 -52 -6 -5 -5 -8 4 -8 10 0 11 -3 2
-13 -6 -8 -8 -17 -4 -20 3 -4 8 -39 9 -79 2 -40 7 -80 10 -88 4 -8 7 -26 8
-40 1 -14 6 -32 11 -39 5 -10 4 -12 -3 -7 -9 5 -9 0 -3 -17 6 -14 7 -28 4 -31
-4 -3 -1 -6 5 -6 6 0 9 -11 6 -24 -2 -14 2 -31 11 -39 8 -9 11 -17 6 -19 -16
-6 0 -68 18 -68 13 0 13 -2 2 -9 -10 -6 -10 -13 -2 -28 5 -11 7 -23 4 -27 -3
-3 2 -16 13 -28 10 -12 14 -19 8 -15 -7 4 -9 -2 -6 -18 2 -14 8 -25 13 -25 5
0 6 -6 3 -14 -3 -8 0 -17 5 -21 6 -3 9 -11 6 -16 -4 -5 -1 -9 5 -9 6 0 9 -4 6
-9 -4 -5 0 -12 6 -14 10 -4 10 -6 0 -6 -7 -1 -10 -6 -7 -11 5 -8 12 -7 23 2
14 10 15 10 5 -2 -19 -21 -16 -46 9 -64 15 -10 17 -14 6 -10 -17 6 -17 4 -2
-32 9 -22 19 -43 22 -49 4 -5 7 -16 9 -24 1 -8 5 -17 10 -20 4 -3 9 -13 11
-21 2 -8 10 -23 19 -32 8 -9 12 -22 8 -27 -3 -6 -1 -11 4 -11 6 0 11 -6 11
-14 0 -21 26 -67 33 -59 4 3 7 0 7 -8 0 -22 39 -99 50 -99 5 0 10 -10 12 -22
2 -13 9 -22 15 -21 8 2 10 -4 6 -14 -4 -11 -3 -14 5 -9 7 4 10 2 7 -7 -6 -15
127 -206 213 -307 324 -379 721 -652 1178 -810 150 -52 327 -95 469 -115 60
-9 126 -18 145 -21 75 -10 351 -12 460 -4 585 48 1105 265 1550 644 43 38 243
238 288 289 25 28 31 41 23 51 -8 9 -7 13 4 13 8 0 11 -5 8 -11 -4 -6 1 -5 11
3 9 8 15 22 13 32 -3 12 0 16 8 12 8 -3 20 8 30 26 8 17 20 31 26 31 6 0 7 5
4 11 -4 6 3 17 14 26 16 10 20 21 16 36 -5 16 -4 18 3 8 7 -9 12 -10 16 -2 4
6 4 11 -1 11 -4 0 3 7 15 16 12 8 22 22 22 30 0 8 5 14 11 14 5 0 7 5 4 10 -3
6 -2 10 3 10 5 0 15 14 22 31 7 17 18 36 24 43 18 20 59 99 48 92 -6 -3 -14
-1 -18 5 -4 7 -3 9 3 6 10 -6 51 30 46 39 -8 12 -1 24 10 18 10 -6 10 -4 0 7
-7 7 -13 18 -13 24 0 5 4 3 10 -5 7 -11 11 -9 19 13 6 16 11 33 11 38 0 5 5 9
11 9 5 0 8 4 4 9 -3 5 -1 12 5 16 6 4 8 11 5 16 -4 5 -1 9 5 9 6 0 9 4 5 9 -3
5 1 15 8 23 8 7 12 19 9 26 -2 6 1 12 7 12 6 0 7 7 4 17 -4 11 -3 14 5 9 16
-10 15 7 0 23 -11 10 -10 11 4 6 17 -7 19 9 5 32 -6 9 -3 11 10 6 10 -3 15 -3
11 2 -4 4 -2 15 5 23 10 13 9 14 -2 8 -8 -6 -7 0 4 18 10 14 14 26 10 26 -4 0
-3 6 2 12 16 21 34 80 22 72 -6 -4 -4 5 5 18 9 14 13 28 9 31 -3 4 0 7 8 7 12
0 11 2 -1 10 -13 8 -13 11 -1 19 8 5 12 18 8 30 -3 12 -1 19 4 15 5 -3 9 -2
10 3 0 4 2 20 4 36 3 19 0 25 -8 21 -7 -3 -4 1 7 10 10 8 16 22 13 30 -4 9 -1
18 5 22 7 4 6 9 -3 15 -11 7 -11 9 -1 9 7 0 10 5 7 10 -3 6 -1 10 5 10 6 0 8
5 5 10 -4 6 -12 8 -18 4 -7 -3 -5 0 3 8 9 7 15 20 15 28 -1 8 1 20 4 25 6 10
8 28 15 147 3 37 7 72 11 78 3 5 2 10 -3 10 -5 0 -6 21 -2 48 5 28 4 49 -2 53
-7 4 -7 9 0 13 9 5 8 50 -2 98 -2 10 1 15 9 12 8 -4 11 3 9 21 -1 15 -5 29 -8
32 -3 4 -1 12 5 19 7 8 6 14 -2 20 -7 4 -9 3 -6 -3 8 -12 -20 -39 -30 -29 -3
3 -1 6 5 6 7 0 12 12 12 26 0 14 4 23 8 20 5 -3 9 1 9 9 0 8 -9 17 -19 21 -10
3 -18 10 -18 15 0 6 10 7 23 4 16 -6 19 -4 11 4 -6 7 -20 13 -31 13 -21 2 -29
34 -9 41 7 3 13 -1 13 -9 0 -7 -5 -10 -10 -7 -6 3 -7 1 -3 -5 4 -6 14 -8 23
-5 11 5 13 8 5 11 -10 3 -10 7 -2 18 9 10 8 12 -9 9 -11 -2 -24 1 -27 7 -4 6
-3 8 3 5 6 -4 11 4 11 18 0 14 -5 22 -11 18 -6 -3 -7 -1 -3 5 4 7 1 12 -6 12
-10 0 -10 2 -1 8 9 6 8 15 -6 38 -14 23 -15 31 -5 31 7 0 11 -3 9 -7 -2 -4 3
-16 11 -26 9 -10 13 -13 9 -7 -11 23 -14 53 -5 58 5 3 0 20 -10 38 -21 34 -26
52 -11 43 5 -3 12 1 15 9 4 13 2 14 -14 5 -11 -6 -20 -16 -20 -22 0 -6 -3 -8
-7 -5 -4 4 4 22 17 40 12 17 17 26 9 20 -20 -19 -34 -16 -18 4 10 11 10 14 2
9 -8 -4 -13 -1 -13 9 0 9 4 14 8 11 5 -3 8 9 7 27 -1 22 -7 32 -18 33 -13 2
-14 1 -2 -3 8 -2 13 -9 9 -14 -3 -5 -10 -7 -15 -4 -5 4 -9 1 -9 -5 0 -6 -5 -8
-11 -4 -8 4 -7 9 2 15 8 5 10 9 5 9 -5 0 -1 10 10 22 10 12 14 19 9 15 -6 -3
-17 -2 -25 3 -13 8 -13 11 -1 22 10 10 12 10 7 1 -4 -7 -2 -13 4 -13 7 0 10 6
7 14 -3 7 0 19 6 26 7 7 0 5 -15 -4 -27 -18 -37 -13 -33 17 2 9 -2 17 -8 17
-7 0 -6 5 3 10 13 8 13 11 1 19 -20 13 -3 33 22 26 21 -6 21 -5 3 6 -15 9 -24
9 -40 -1 -20 -12 -20 -12 -5 6 26 30 29 41 14 41 -8 0 -12 -4 -9 -8 2 -4 -1
-11 -8 -15 -7 -4 -10 -4 -6 1 4 4 2 15 -5 23 -9 13 -9 14 1 8 17 -10 15 2 -3
20 -11 11 -15 12 -15 3 0 -7 -3 -10 -6 -6 -3 3 -3 11 1 17 5 8 11 8 21 -1 10
-8 14 -8 14 0 0 6 -5 11 -11 11 -5 0 -8 4 -5 9 3 4 -6 7 -21 5 -19 -2 -23 0
-14 9 15 15 14 25 -4 30 -11 3 -10 4 2 3 10 -1 17 -9 17 -19 -1 -9 2 -14 6
-12 13 8 8 41 -7 43 -7 1 -19 3 -27 4 -14 1 -16 22 -2 35 4 4 6 2 4 -6 -2 -7
4 -16 12 -18 12 -4 12 -3 2 5 -8 5 -13 12 -13 16 3 24 0 28 -13 17 -12 -10
-13 -8 -9 8 3 12 10 21 16 21 6 0 7 3 4 6 -4 4 -13 1 -21 -5 -11 -9 -16 -9
-22 0 -4 7 -3 9 3 6 6 -4 14 0 17 9 8 21 8 24 -5 24 -5 0 -8 -4 -5 -9 7 -11
-21 -8 -31 4 -4 4 -3 5 4 1 6 -3 14 -2 18 4 3 5 -5 14 -19 20 -14 5 -26 11
-26 13 0 9 40 -1 57 -13 17 -14 17 -14 0 6 -9 11 -14 24 -10 27 3 4 1 7 -5 7
-5 0 -12 -5 -14 -11 -2 -7 -10 -4 -18 7 -8 10 -10 15 -5 12 6 -4 17 -2 25 3
13 9 13 10 0 8 -27 -3 -40 1 -40 11 0 5 6 7 14 4 8 -3 17 -1 21 5 3 6 0 9 -8
5 -8 -3 -17 2 -21 11 -4 11 -13 14 -28 10 -22 -6 -22 -5 1 8 l24 15 -21 6
c-13 4 -22 16 -22 27 0 10 -4 19 -10 19 -5 0 -7 -6 -4 -14 3 -8 1 -16 -4 -20
-15 -9 -7 35 9 45 10 7 7 8 -11 3 -22 -6 -24 -5 -11 10 12 15 12 19 -4 34 -10
9 -15 11 -11 5 4 -7 2 -13 -3 -13 -15 0 -14 27 2 33 6 3 -3 3 -22 0 -31 -6
-33 -4 -26 17 6 17 4 21 -6 14 -11 -6 -11 -5 0 9 12 16 12 17 -5 10 -17 -6
-17 -5 -5 10 15 19 2 24 -16 6 -8 -8 -13 -7 -19 3 -14 22 -15 51 -2 59 8 5 5
8 -9 6 -12 0 -19 -5 -17 -9 3 -4 1 -8 -5 -8 -5 0 -13 5 -16 10 -3 6 -1 10 4
10 6 0 11 8 11 17 0 13 -3 14 -12 5 -7 -7 -16 -12 -21 -12 -5 0 -1 7 7 16 9 8
16 20 16 27 0 6 -7 2 -16 -9 -15 -19 -15 -19 -11 2 3 13 -3 28 -15 38 -11 10
-16 22 -12 29 6 9 4 9 -8 -1 -11 -9 -22 -10 -39 -2 -23 10 -23 10 -2 6 13 -2
25 -1 28 3 2 4 -2 8 -10 9 -8 1 -21 3 -28 4 -7 1 -14 10 -14 20 -2 23 -30 63
-45 63 -6 0 -13 6 -16 14 -3 8 0 11 7 7 7 -5 9 -1 4 9 -3 10 -8 12 -12 7 -4
-7 -13 -5 -24 3 -14 10 -15 14 -5 18 11 4 11 6 0 6 -7 1 -11 5 -8 9 3 5 -1 9
-9 9 -8 0 -12 -4 -9 -9 10 -16 -9 -8 -22 10 -13 16 -14 16 -8 -3 7 -20 7 -20
-9 0 -10 13 -12 26 -6 42 12 31 3 29 -14 -3 -12 -22 -15 -24 -20 -10 -4 10 -3
14 3 11 5 -3 8 4 7 15 -1 13 -5 16 -11 10 -13 -13 -26 -13 -26 1 0 5 5 7 10 4
6 -3 10 -1 10 4 0 11 -20 15 -50 11 -10 -1 -9 3 5 13 11 9 17 19 12 23 -4 4
-7 2 -7 -4 0 -7 -5 -12 -11 -12 -5 0 -7 5 -4 10 5 8 -12 14 -35 12 -3 0 -7 9
-7 20 -2 20 -1 20 13 2 14 -18 14 -18 4 3 -7 15 -16 20 -27 16 -11 -5 -14 -3
-8 6 6 10 3 11 -14 2 -19 -11 -25 -8 -22 12 1 4 -10 13 -24 19 -14 6 -25 15
-25 20 0 5 -4 7 -8 4 -5 -3 -9 1 -9 9 0 8 17 0 43 -21 31 -26 44 -32 50 -22 4
7 4 10 -1 6 -4 -4 -13 -2 -20 5 -7 7 -22 18 -33 26 -12 8 -18 19 -15 25 3 6 3
8 -2 4 -4 -4 -21 4 -37 17 -16 14 -34 25 -39 25 -6 0 -7 6 -3 13 5 8 2 8 -9
-2 -15 -12 -17 -11 -17 3 0 9 -5 16 -10 16 -7 0 -7 -6 0 -20 6 -11 14 -19 18
-19 4 1 14 1 22 0 13 -1 13 -2 0 -11 -9 -5 -19 -5 -26 0 -6 6 -14 6 -18 2 -4
-4 -7 -2 -6 3 5 21 0 32 -15 33 -8 1 -22 3 -30 4 -8 1 -12 4 -9 7 8 8 28 8 34
0 3 -3 14 3 25 14 11 11 14 17 8 13 -21 -12 -53 -15 -53 -6 0 4 3 10 8 13 4 2
2 2 -5 1 -15 -4 -35 20 -25 32 4 4 -1 3 -10 -5 -9 -7 -14 -19 -11 -27 3 -8 0
-14 -6 -14 -6 0 -10 3 -10 8 1 4 1 16 0 27 -2 20 -2 20 -16 1 -13 -18 -14 -17
-10 13 2 18 0 29 -6 26 -5 -4 -9 -1 -9 6 0 7 -3 9 -6 6 -4 -4 -1 -14 6 -22 12
-14 11 -15 -13 -4 -28 13 -36 29 -14 29 8 0 7 4 -3 10 -24 16 -32 12 -24 -12
6 -21 6 -21 -10 -5 -10 9 -14 22 -10 28 5 8 3 9 -6 4 -10 -6 -12 -4 -7 8 4 10
2 17 -4 17 -6 0 -9 -10 -7 -23 3 -15 0 -24 -8 -24 -8 0 -12 9 -10 21 5 30 -13
50 -30 35 -17 -14 -18 2 -1 20 10 11 8 11 -10 0 -12 -7 -19 -18 -17 -24 3 -5
-3 0 -14 13 -14 15 -22 18 -25 10 -3 -8 -6 -6 -6 5 -1 9 -8 17 -17 17 -8 0
-12 -4 -9 -10 3 -5 1 -10 -4 -10 -14 0 -14 6 -1 31 6 11 7 19 1 19 -5 0 -11
-7 -15 -15 -3 -8 -11 -15 -17 -15 -8 0 -8 4 1 15 7 9 10 18 6 22 -3 3 -6 1 -6
-5 0 -7 -7 -12 -16 -12 -9 0 -12 5 -8 13 5 7 1 6 -10 -2 -16 -13 -17 -13 -14
4 1 11 -1 20 -7 20 -5 0 -16 4 -24 9 -9 6 -12 5 -8 -1 7 -11 -22 -28 -31 -18
-3 3 1 5 9 5 11 0 11 2 -1 10 -11 7 -17 5 -22 -8 -5 -14 -7 -13 -7 6 -1 13 -7
22 -17 22 -8 0 -12 -4 -9 -10 3 -5 1 -10 -5 -10 -7 0 -10 6 -7 13 3 7 -2 22
-10 32 -14 19 -14 19 -10 -5 2 -14 2 -19 0 -12 -3 9 -15 12 -33 10 -25 -4 -28
-2 -23 21 4 25 4 25 -11 6 -13 -19 -15 -19 -21 -2 -4 9 -18 17 -31 17 -13 0
-32 8 -41 18 -17 17 -19 17 -36 -3 -16 -17 -18 -17 -13 -3 3 11 0 17 -7 15 -7
-1 -11 5 -9 13 3 12 1 13 -9 3 -16 -16 -33 -17 -23 -1 4 7 3 8 -5 4 -6 -4 -9
-12 -6 -17 3 -5 -2 -6 -11 -2 -13 5 -15 3 -10 -8 4 -8 0 -5 -8 5 -12 15 -16
16 -16 5 0 -12 -2 -12 -10 1 -8 12 -12 13 -19 2 -6 -11 -10 -10 -15 3 -3 9 -4
20 -2 24 2 3 -14 6 -37 5 -54 -2 -55 -2 -37 -14 8 -5 10 -10 4 -10 -6 0 -17 7
-24 15 -11 13 -14 13 -26 -2 -13 -17 -14 -17 -7 2 3 11 11 23 16 26 5 4 5 9
-1 13 -6 3 -13 -3 -17 -14 -4 -11 -11 -18 -16 -14 -5 3 -7 8 -5 12 2 4 -6 7
-19 7 -12 0 -21 -5 -18 -11 2 -6 -3 -11 -12 -11 -10 0 -13 6 -9 19 3 10 0 18
-6 18 -6 0 -8 -4 -5 -10 7 -11 -4 -13 -47 -10 -14 1 -29 -3 -33 -9 -3 -6 -11
-11 -17 -11 -5 0 0 9 13 20 13 10 19 19 13 20 -5 0 -16 -6 -23 -12 -10 -9 -12
-9 -7 -1 3 6 1 15 -5 19 -7 4 -9 3 -6 -2 3 -6 2 -16 -4 -24 -7 -13 -9 -12 -9
3 0 20 -11 22 -29 5 -10 -9 -12 -9 -7 -1 3 6 1 15 -5 19 -7 4 -9 3 -5 -4 3 -6
2 -13 -3 -16 -5 -3 -12 1 -15 9 -4 12 -10 13 -25 6 -14 -8 -21 -7 -25 2 -3 6
-3 1 0 -13 4 -21 3 -22 -6 -7 -6 9 -16 15 -21 12 -5 -4 -7 -10 -4 -15 3 -5 1
-11 -4 -14 -5 -4 -8 5 -6 20 2 17 -1 22 -8 15 -7 -7 -16 -7 -29 0 -10 5 -18 6
-17 2 4 -22 -3 -25 -17 -7 -11 14 -14 15 -11 3 3 -9 1 -22 -4 -30 -8 -11 -9
-10 -7 5 2 11 -5 21 -19 27 -16 6 -21 5 -17 -5 3 -7 -3 -19 -13 -27 -16 -13
-17 -12 -5 3 11 14 10 18 -9 28 -17 10 -20 9 -14 -1 6 -9 3 -11 -9 -6 -11 4
-15 3 -11 -4 4 -6 13 -8 21 -5 22 8 17 -2 -7 -15 -17 -8 -20 -8 -14 1 5 8 3
11 -6 8 -8 -3 -13 -11 -11 -17 3 -18 -6 -13 -18 9 -9 16 -8 18 5 14 8 -4 15
-1 15 6 0 6 -4 9 -9 6 -5 -4 -11 -1 -13 6 -3 7 -7 5 -11 -6z m312 -22 c-14
-13 -16 -13 -16 0 0 8 4 13 9 10 4 -3 8 0 8 7 0 7 3 9 7 5 4 -3 0 -13 -8 -22z
m-319 -29 c0 -5 -5 -3 -10 5 -5 8 -10 20 -10 25 0 6 5 3 10 -5 5 -8 10 -19 10
-25z m385 25 c-3 -5 -12 -10 -18 -10 -7 0 -6 4 3 10 19 12 23 12 15 0z m-415
-14 c0 -2 -7 -7 -16 -10 -8 -3 -12 -2 -9 4 6 10 25 14 25 6z m745 -4 c-3 -3 3
-11 13 -19 15 -13 15 -13 -5 -3 -28 13 -37 27 -18 27 8 0 13 -3 10 -5z m-935
-17 c0 -8 -2 -15 -4 -15 -2 0 -6 7 -10 15 -3 8 -1 15 4 15 6 0 10 -7 10 -15z
m1096 -31 c2 -12 -1 -13 -12 -3 -7 6 -11 16 -8 21 7 11 17 3 20 -18z m61 -14
c-2 -23 -10 -17 -14 11 -2 11 1 18 6 14 6 -3 9 -14 8 -25z m63 -12 c0 -6 -3
-8 -7 -5 -3 4 -13 1 -22 -6 -14 -11 -14 -10 -2 6 15 20 31 22 31 5z m-1676
-66 c3 -5 -1 -9 -9 -9 -8 0 -15 4 -15 9 0 4 4 8 9 8 6 0 12 -4 15 -8z m1920
-14 c-3 -5 -10 -6 -15 -3 -5 4 -9 1 -9 -6 0 -7 -3 -10 -6 -6 -9 9 3 24 20 24
8 0 13 -4 10 -9z m211 -88 c3 -5 1 -10 -4 -10 -6 0 -11 5 -11 10 0 6 2 10 4
10 3 0 8 -4 11 -10z m-21 -18 c3 -5 -1 -9 -9 -9 -8 0 -12 4 -9 9 3 4 7 8 9 8
2 0 6 -4 9 -8z m-2554 -93 c-7 -11 -14 -18 -17 -15 -3 3 0 12 7 21 18 21 23
19 10 -6z m2779 -13 c9 -11 9 -16 -1 -22 -7 -4 -10 -4 -6 1 4 4 3 14 -3 22 -6
7 -9 13 -6 13 2 0 10 -6 16 -14z m151 -101 c12 -15 4 -16 -38 -6 -7 2 10 21
17 21 5 0 14 -7 21 -15z m-3180 -72 c0 -3 -7 -3 -15 1 -8 3 -15 0 -15 -6 0 -6
-3 -9 -6 -5 -11 10 6 26 21 20 8 -3 15 -7 15 -10z m-165 -163 c3 -6 -1 -7 -9
-4 -18 7 -21 14 -7 14 6 0 13 -4 16 -10z m3669 -65 c-4 -9 0 -15 9 -15 8 0 22
-11 31 -25 9 -14 12 -25 7 -25 -5 0 -13 9 -16 20 -3 11 -13 20 -20 20 -17 0
-28 17 -20 30 9 15 15 12 9 -5z m96 -98 c0 -5 -7 -2 -15 7 -8 8 -15 20 -15 27
0 14 29 -20 30 -34z m98 -96 c7 -4 5 -11 -6 -17 -15 -10 -17 -7 -19 19 0 17 2
24 7 17 4 -7 12 -15 18 -19z m-4216 -110 c-8 -4 -13 -11 -13 -15 1 -3 1 -12 0
-18 0 -10 -2 -10 -6 0 -2 6 -10 9 -16 5 -7 -3 -3 3 7 15 11 12 24 22 30 22 6
0 5 -4 -2 -9z m-25 -67 c2 -13 1 -15 -4 -4 -3 8 -11 19 -17 23 -7 6 -6 7 4 4
8 -2 16 -12 17 -23z m-72 -94 c-10 -11 -22 -20 -27 -20 -10 0 24 38 36 39 5 1
1 -8 -9 -19z m4565 -75 c0 -2 -9 -3 -19 -2 -11 0 -18 5 -15 9 4 6 34 0 34 -7z
m20 -35 c0 -5 -8 -10 -17 -10 -15 0 -16 2 -3 10 19 12 20 12 20 0z m-4690 -40
c0 -5 -5 -10 -11 -10 -5 0 -7 5 -4 10 3 6 8 10 11 10 2 0 4 -4 4 -10z m-10
-54 c0 -3 -4 -8 -10 -11 -5 -3 -10 -1 -10 4 0 6 5 11 10 11 6 0 10 -2 10 -4z
m-69 -115 c-7 -5 -11 -13 -7 -19 3 -6 1 -14 -5 -18 -8 -4 -9 -3 -5 4 4 7 2 12
-5 12 -8 0 -8 4 1 15 7 8 18 15 24 15 6 0 5 -4 -3 -9z m-51 -151 c0 -5 -5 -10
-11 -10 -5 0 -7 5 -4 10 3 6 8 10 11 10 2 0 4 -4 4 -10z m-109 -273 c-10 -9
-11 -8 -5 6 3 10 9 15 12 12 3 -3 0 -11 -7 -18z m5179 20 c0 -2 -9 -12 -19
-21 -14 -13 -21 -14 -27 -5 -4 7 -3 10 3 6 6 -4 13 0 17 8 4 13 26 22 26 12z
m-5176 -126 c3 -5 -2 -15 -12 -22 -15 -12 -16 -12 -5 2 7 9 10 19 6 22 -3 4
-4 7 0 7 3 0 8 -4 11 -9z m5210 -53 c-3 -4 -11 -8 -17 -8 -7 0 -6 4 3 10 8 5
10 10 4 10 -7 0 -14 10 -17 23 -6 21 -6 21 13 -3 10 -13 16 -28 14 -32z m36
-268 c0 -5 -4 -10 -10 -10 -5 0 -10 5 -10 10 0 6 5 10 10 10 6 0 10 -4 10 -10z
m15 -89 c3 -5 2 -12 -3 -15 -5 -3 -9 1 -9 9 0 17 3 19 12 6z m-5200 -931 c3
-5 1 -10 -4 -10 -6 0 -11 5 -11 10 0 6 2 10 4 10 3 0 8 -4 11 -10z m61 -216
c1 -9 0 -13 -4 -10 -3 4 -7 14 -8 22 -1 9 0 13 4 10 3 -4 7 -14 8 -22z"/>
<path d="M2940 5391 c0 -6 4 -13 10 -16 6 -3 7 1 4 9 -7 18 -14 21 -14 7z"/>
<path d="M3110 5370 c-8 -5 -12 -11 -10 -14 3 -2 14 2 24 10 22 15 10 19 -14
4z"/>
<path d="M3209 5342 c-13 -15 -12 -16 4 -3 9 7 17 9 17 4 0 -5 9 -9 20 -10 11
-1 20 3 20 9 0 6 -3 8 -6 5 -4 -3 -15 -2 -24 3 -13 7 -22 5 -31 -8z"/>
<path d="M2135 5340 c3 -5 8 -10 11 -10 2 0 4 5 4 10 0 6 -5 10 -11 10 -5 0
-7 -4 -4 -10z"/>
<path d="M2106 5331 c-4 -5 -2 -12 3 -15 5 -4 12 -2 15 3 4 5 2 12 -3 15 -5 4
-12 2 -15 -3z"/>
<path d="M1976 5293 c-6 -14 -5 -15 5 -6 7 7 10 15 7 18 -3 3 -9 -2 -12 -12z"/>
<path d="M3515 5279 c-4 -6 -5 -12 -2 -15 2 -3 7 2 10 11 7 17 1 20 -8 4z"/>
<path d="M3610 5245 c0 -2 10 -10 23 -16 20 -11 21 -11 8 4 -13 16 -31 23 -31
12z"/>
<path d="M1557 5147 c-9 -23 8 -30 24 -10 8 9 9 14 2 10 -6 -4 -13 -2 -15 5
-3 8 -7 6 -11 -5z"/>
<path d="M3846 5133 c-6 -14 -5 -15 5 -6 7 7 10 15 7 18 -3 3 -9 -2 -12 -12z"/>
<path d="M1080 4861 c0 -6 4 -13 10 -16 6 -3 7 1 4 9 -7 18 -14 21 -14 7z"/>
<path d="M1010 4819 c0 -5 5 -7 10 -4 6 3 10 8 10 11 0 2 -4 4 -10 4 -5 0 -10
-5 -10 -11z"/>
<path d="M893 4698 c1 -7 -4 -12 -10 -10 -7 1 -12 -4 -10 -10 1 -7 -4 -12 -10
-10 -7 1 -12 -1 -12 -5 4 -23 -3 -32 -18 -27 -15 5 -16 4 -3 -5 13 -10 8 -15
-12 -12 -4 0 -5 -6 -2 -14 5 -11 16 -3 40 30 19 25 38 44 42 42 7 -2 12 6 12
23 0 6 -4 10 -10 10 -5 0 -9 -6 -7 -12z"/>
<path d="M4536 4632 c-2 -4 4 -8 14 -8 10 0 16 4 14 8 -3 4 -9 8 -14 8 -5 0
-11 -4 -14 -8z"/>
<path d="M698 4481 c5 -14 4 -15 -14 -1 -18 14 -18 14 -5 -3 11 -14 17 -15 30
-5 9 7 17 13 19 14 1 1 -6 4 -17 7 -15 4 -18 1 -13 -12z"/>
<path d="M4707 4459 c7 -7 15 -10 18 -7 3 3 -2 9 -12 12 -14 6 -15 5 -6 -5z"/>
<path d="M600 4400 c-9 -6 -10 -10 -3 -10 6 0 15 5 18 10 8 12 4 12 -15 0z"/>
<path d="M556 4321 c-4 -5 -2 -12 3 -15 5 -4 12 -2 15 3 4 5 2 12 -3 15 -5 4
-12 2 -15 -3z"/>
<path d="M4863 4273 c2 -12 7 -26 12 -30 4 -5 5 -2 1 5 -5 7 -1 12 11 13 14 0
15 2 3 6 -8 3 -18 11 -23 17 -4 6 -6 1 -4 -11z"/>
<path d="M4933 4208 c3 -9 1 -19 -6 -22 -9 -3 -9 -5 0 -5 18 -1 23 13 11 29
-8 12 -9 12 -5 -2z"/>
<path d="M486 4199 c2 -4 -2 -10 -8 -12 -8 -4 -9 -6 -2 -6 6 -1 17 5 23 12 8
10 7 14 -4 14 -8 0 -12 -4 -9 -8z"/>
<path d="M267 3879 c7 -7 15 -10 18 -7 3 3 -2 9 -12 12 -14 6 -15 5 -6 -5z"/>
<path d="M278 3838 c5 -20 15 -17 18 6 1 7 -4 13 -11 13 -7 0 -10 -8 -7 -19z"/>
<path d="M5237 3579 c7 -7 15 -10 18 -7 3 3 -2 9 -12 12 -14 6 -15 5 -6 -5z"/>
<path d="M5249 3560 c-6 -26 -4 -58 3 -54 4 3 6 9 3 14 -3 4 1 10 7 13 10 4
11 7 1 18 -7 7 -13 11 -14 9z"/>
<path d="M126 3478 c3 -4 9 -8 15 -8 5 0 9 4 9 8 0 5 -7 9 -15 9 -8 0 -12 -4
-9 -9z"/>
<path d="M5335 3271 c-3 -5 -2 -12 3 -15 5 -3 9 1 9 9 0 17 -3 19 -12 6z"/>
<path d="M70 3260 c0 -5 5 -10 10 -10 6 0 10 5 10 10 0 6 -4 10 -10 10 -5 0
-10 -4 -10 -10z"/>
<path d="M5350 3120 c0 -5 5 -10 11 -10 5 0 7 5 4 10 -3 6 -8 10 -11 10 -2 0
-4 -4 -4 -10z"/>
<path d="M26 3002 c-3 -5 1 -9 9 -9 8 0 12 4 9 9 -3 4 -7 8 -9 8 -2 0 -6 -4
-9 -8z"/>
</g>
</svg>
